<svg xmlns="http://www.w3.org/2000/svg" viewBox="0 0 64 64" role="img" aria-label="Demo Biuro Rachunkowe">
  <defs>
    <linearGradient id="g" x1="0" y1="0" x2="1" y2="1">
      <stop offset="0%" stop-color="#2563eb" />
      <stop offset="100%" stop-color="#0f172a" />
    </linearGradient>
  </defs>
  <rect width="64" height="64" rx="14" fill="url(#g)" />
  <path d="M18 44V20h17c6 0 10 3 10 8 0 3-2 6-5 7 4 1 6 4 6 8 0 6-5 9-12 9H18zm10-14h6c2 0 3-1 3-3s-1-3-3-3h-6v6zm0 10h7c2 0 4-1 4-3s-2-3-4-3h-7v6z" fill="#ffffff"/>
</svg>
